<mxfile host="Electron" agent="Mozilla/5.0 (Windows NT 10.0; Win64; x64) AppleWebKit/537.36 (KHTML, like Gecko) draw.io/25.0.2 Chrome/128.0.6613.186 Electron/32.2.5 Safari/537.36" version="25.0.2">
  <diagram id="hPJmeEbqM_uJhu1WUBgI" name="Page-2">
    <mxGraphModel dx="605" dy="3094" grid="0" gridSize="10" guides="1" tooltips="1" connect="1" arrows="1" fold="1" page="1" pageScale="1" pageWidth="827" pageHeight="1169" math="0" shadow="0">
      <root>
        <mxCell id="0" />
        <mxCell id="1" parent="0" />
        <mxCell id="ZoxIKXAUOeXcQ5-5phDQ-10" value="" style="edgeStyle=orthogonalEdgeStyle;rounded=0;orthogonalLoop=1;jettySize=auto;html=1;" parent="1" source="ZoxIKXAUOeXcQ5-5phDQ-11" target="ZoxIKXAUOeXcQ5-5phDQ-14" edge="1">
          <mxGeometry relative="1" as="geometry" />
        </mxCell>
        <mxCell id="ZoxIKXAUOeXcQ5-5phDQ-11" value="Start" style="ellipse;whiteSpace=wrap;html=1;" parent="1" vertex="1">
          <mxGeometry x="188" y="-2262" width="120" height="80" as="geometry" />
        </mxCell>
        <mxCell id="ZoxIKXAUOeXcQ5-5phDQ-21" value="" style="edgeStyle=orthogonalEdgeStyle;rounded=0;orthogonalLoop=1;jettySize=auto;html=1;" parent="1" source="ZoxIKXAUOeXcQ5-5phDQ-12" target="ZoxIKXAUOeXcQ5-5phDQ-15" edge="1">
          <mxGeometry relative="1" as="geometry" />
        </mxCell>
        <mxCell id="x9kzj9fMZQaz0tGiDgYw-3" value="" style="edgeStyle=orthogonalEdgeStyle;rounded=0;orthogonalLoop=1;jettySize=auto;html=1;" parent="1" source="ZoxIKXAUOeXcQ5-5phDQ-12" target="x9kzj9fMZQaz0tGiDgYw-1" edge="1">
          <mxGeometry relative="1" as="geometry" />
        </mxCell>
        <mxCell id="ZoxIKXAUOeXcQ5-5phDQ-12" value="option == 1" style="rhombus;whiteSpace=wrap;html=1;" parent="1" vertex="1">
          <mxGeometry x="198" y="-2065" width="100" height="90" as="geometry" />
        </mxCell>
        <mxCell id="ZoxIKXAUOeXcQ5-5phDQ-13" value="" style="edgeStyle=orthogonalEdgeStyle;rounded=0;orthogonalLoop=1;jettySize=auto;html=1;" parent="1" source="ZoxIKXAUOeXcQ5-5phDQ-14" target="ZoxIKXAUOeXcQ5-5phDQ-12" edge="1">
          <mxGeometry relative="1" as="geometry" />
        </mxCell>
        <mxCell id="ZoxIKXAUOeXcQ5-5phDQ-14" value="Input&amp;nbsp; the choice of&amp;nbsp; university management role menu ( 1- 6)" style="shape=parallelogram;perimeter=parallelogramPerimeter;whiteSpace=wrap;html=1;fixedSize=1;" parent="1" vertex="1">
          <mxGeometry x="148" y="-2142" width="200" height="60" as="geometry" />
        </mxCell>
        <mxCell id="ZoxIKXAUOeXcQ5-5phDQ-22" value="" style="edgeStyle=orthogonalEdgeStyle;rounded=0;orthogonalLoop=1;jettySize=auto;html=1;" parent="1" source="ZoxIKXAUOeXcQ5-5phDQ-15" target="ZoxIKXAUOeXcQ5-5phDQ-16" edge="1">
          <mxGeometry relative="1" as="geometry" />
        </mxCell>
        <mxCell id="ZoxIKXAUOeXcQ5-5phDQ-42" value="" style="edgeStyle=orthogonalEdgeStyle;rounded=0;orthogonalLoop=1;jettySize=auto;html=1;" parent="1" source="ZoxIKXAUOeXcQ5-5phDQ-15" edge="1">
          <mxGeometry relative="1" as="geometry">
            <mxPoint x="356" y="-1900" as="targetPoint" />
          </mxGeometry>
        </mxCell>
        <mxCell id="ZoxIKXAUOeXcQ5-5phDQ-15" value="option == 2" style="rhombus;whiteSpace=wrap;html=1;" parent="1" vertex="1">
          <mxGeometry x="198" y="-1945" width="100" height="90" as="geometry" />
        </mxCell>
        <mxCell id="ZoxIKXAUOeXcQ5-5phDQ-23" value="" style="edgeStyle=orthogonalEdgeStyle;rounded=0;orthogonalLoop=1;jettySize=auto;html=1;" parent="1" source="ZoxIKXAUOeXcQ5-5phDQ-16" target="ZoxIKXAUOeXcQ5-5phDQ-17" edge="1">
          <mxGeometry relative="1" as="geometry" />
        </mxCell>
        <mxCell id="ZoxIKXAUOeXcQ5-5phDQ-44" value="" style="edgeStyle=orthogonalEdgeStyle;rounded=0;orthogonalLoop=1;jettySize=auto;html=1;" parent="1" source="ZoxIKXAUOeXcQ5-5phDQ-16" edge="1">
          <mxGeometry relative="1" as="geometry">
            <mxPoint x="362" y="-1780" as="targetPoint" />
          </mxGeometry>
        </mxCell>
        <mxCell id="ZoxIKXAUOeXcQ5-5phDQ-16" value="&lt;div&gt;option == 3&lt;/div&gt;" style="rhombus;whiteSpace=wrap;html=1;" parent="1" vertex="1">
          <mxGeometry x="198" y="-1825" width="100" height="90" as="geometry" />
        </mxCell>
        <mxCell id="ZoxIKXAUOeXcQ5-5phDQ-25" value="" style="edgeStyle=orthogonalEdgeStyle;rounded=0;orthogonalLoop=1;jettySize=auto;html=1;" parent="1" source="ZoxIKXAUOeXcQ5-5phDQ-17" target="ZoxIKXAUOeXcQ5-5phDQ-18" edge="1">
          <mxGeometry relative="1" as="geometry" />
        </mxCell>
        <mxCell id="ZoxIKXAUOeXcQ5-5phDQ-46" value="" style="edgeStyle=orthogonalEdgeStyle;rounded=0;orthogonalLoop=1;jettySize=auto;html=1;entryX=0;entryY=0.5;entryDx=0;entryDy=0;" parent="1" source="ZoxIKXAUOeXcQ5-5phDQ-17" target="x9kzj9fMZQaz0tGiDgYw-14" edge="1">
          <mxGeometry relative="1" as="geometry">
            <mxPoint x="357" y="-1660" as="targetPoint" />
          </mxGeometry>
        </mxCell>
        <mxCell id="ZoxIKXAUOeXcQ5-5phDQ-17" value="&lt;div&gt;option == 4&lt;/div&gt;" style="rhombus;whiteSpace=wrap;html=1;" parent="1" vertex="1">
          <mxGeometry x="198" y="-1705" width="100" height="90" as="geometry" />
        </mxCell>
        <mxCell id="ZoxIKXAUOeXcQ5-5phDQ-26" value="" style="edgeStyle=orthogonalEdgeStyle;rounded=0;orthogonalLoop=1;jettySize=auto;html=1;" parent="1" source="ZoxIKXAUOeXcQ5-5phDQ-18" target="ZoxIKXAUOeXcQ5-5phDQ-19" edge="1">
          <mxGeometry relative="1" as="geometry" />
        </mxCell>
        <mxCell id="ZoxIKXAUOeXcQ5-5phDQ-48" value="" style="edgeStyle=orthogonalEdgeStyle;rounded=0;orthogonalLoop=1;jettySize=auto;html=1;entryX=0;entryY=0.5;entryDx=0;entryDy=0;" parent="1" source="ZoxIKXAUOeXcQ5-5phDQ-18" target="x9kzj9fMZQaz0tGiDgYw-16" edge="1">
          <mxGeometry relative="1" as="geometry">
            <mxPoint x="378" y="-1540" as="targetPoint" />
          </mxGeometry>
        </mxCell>
        <mxCell id="ZoxIKXAUOeXcQ5-5phDQ-18" value="&lt;div&gt;option == 5&lt;/div&gt;" style="rhombus;whiteSpace=wrap;html=1;" parent="1" vertex="1">
          <mxGeometry x="198" y="-1580" width="100" height="90" as="geometry" />
        </mxCell>
        <mxCell id="ZoxIKXAUOeXcQ5-5phDQ-28" value="" style="edgeStyle=orthogonalEdgeStyle;rounded=0;orthogonalLoop=1;jettySize=auto;html=1;" parent="1" source="ZoxIKXAUOeXcQ5-5phDQ-19" target="ZoxIKXAUOeXcQ5-5phDQ-27" edge="1">
          <mxGeometry relative="1" as="geometry" />
        </mxCell>
        <mxCell id="ZoxIKXAUOeXcQ5-5phDQ-19" value="option == 6" style="rhombus;whiteSpace=wrap;html=1;" parent="1" vertex="1">
          <mxGeometry x="193" y="-1470" width="110" height="90" as="geometry" />
        </mxCell>
        <mxCell id="ZoxIKXAUOeXcQ5-5phDQ-27" value="Stop" style="ellipse;whiteSpace=wrap;html=1;" parent="1" vertex="1">
          <mxGeometry x="188" y="-1325" width="120" height="80" as="geometry" />
        </mxCell>
        <mxCell id="ZoxIKXAUOeXcQ5-5phDQ-50" value="Yes" style="text;html=1;align=center;verticalAlign=middle;resizable=0;points=[];autosize=1;strokeColor=none;fillColor=none;" parent="1" vertex="1">
          <mxGeometry x="308" y="-2057" width="40" height="30" as="geometry" />
        </mxCell>
        <mxCell id="ZoxIKXAUOeXcQ5-5phDQ-51" value="No" style="text;html=1;align=center;verticalAlign=middle;resizable=0;points=[];autosize=1;strokeColor=none;fillColor=none;" parent="1" vertex="1">
          <mxGeometry x="258" y="-1975" width="40" height="30" as="geometry" />
        </mxCell>
        <mxCell id="ZoxIKXAUOeXcQ5-5phDQ-52" value="Yes" style="text;html=1;align=center;verticalAlign=middle;resizable=0;points=[];autosize=1;strokeColor=none;fillColor=none;" parent="1" vertex="1">
          <mxGeometry x="308" y="-1930" width="40" height="30" as="geometry" />
        </mxCell>
        <mxCell id="ZoxIKXAUOeXcQ5-5phDQ-53" value="Yes" style="text;html=1;align=center;verticalAlign=middle;resizable=0;points=[];autosize=1;strokeColor=none;fillColor=none;" parent="1" vertex="1">
          <mxGeometry x="308" y="-1810" width="40" height="30" as="geometry" />
        </mxCell>
        <mxCell id="ZoxIKXAUOeXcQ5-5phDQ-54" value="Yes" style="text;html=1;align=center;verticalAlign=middle;resizable=0;points=[];autosize=1;strokeColor=none;fillColor=none;" parent="1" vertex="1">
          <mxGeometry x="303" y="-1690" width="40" height="30" as="geometry" />
        </mxCell>
        <mxCell id="ZoxIKXAUOeXcQ5-5phDQ-55" value="Yes" style="text;html=1;align=center;verticalAlign=middle;resizable=0;points=[];autosize=1;strokeColor=none;fillColor=none;" parent="1" vertex="1">
          <mxGeometry x="308" y="-1565" width="40" height="30" as="geometry" />
        </mxCell>
        <mxCell id="ZoxIKXAUOeXcQ5-5phDQ-56" value="No" style="text;html=1;align=center;verticalAlign=middle;resizable=0;points=[];autosize=1;strokeColor=none;fillColor=none;" parent="1" vertex="1">
          <mxGeometry x="258" y="-1855" width="40" height="30" as="geometry" />
        </mxCell>
        <mxCell id="ZoxIKXAUOeXcQ5-5phDQ-57" value="No" style="text;html=1;align=center;verticalAlign=middle;resizable=0;points=[];autosize=1;strokeColor=none;fillColor=none;" parent="1" vertex="1">
          <mxGeometry x="258" y="-1735" width="40" height="30" as="geometry" />
        </mxCell>
        <mxCell id="ZoxIKXAUOeXcQ5-5phDQ-58" value="No" style="text;html=1;align=center;verticalAlign=middle;resizable=0;points=[];autosize=1;strokeColor=none;fillColor=none;" parent="1" vertex="1">
          <mxGeometry x="258" y="-1625" width="40" height="30" as="geometry" />
        </mxCell>
        <mxCell id="uOiCjjrxeWrXdkk0zyQc-3" value="" style="endArrow=classic;html=1;rounded=0;entryX=1;entryY=0.5;entryDx=0;entryDy=0;" parent="1" edge="1">
          <mxGeometry width="50" height="50" relative="1" as="geometry">
            <mxPoint x="680" y="-2162" as="sourcePoint" />
            <mxPoint x="250" y="-2162" as="targetPoint" />
          </mxGeometry>
        </mxCell>
        <mxCell id="uOiCjjrxeWrXdkk0zyQc-4" value="" style="endArrow=none;html=1;rounded=0;" parent="1" edge="1">
          <mxGeometry width="50" height="50" relative="1" as="geometry">
            <mxPoint x="678" y="-1425" as="sourcePoint" />
            <mxPoint x="678" y="-2162" as="targetPoint" />
          </mxGeometry>
        </mxCell>
        <mxCell id="uOiCjjrxeWrXdkk0zyQc-5" value="" style="endArrow=none;html=1;rounded=0;exitX=1;exitY=0.25;exitDx=0;exitDy=0;" parent="1" source="YzYhgDHI8R-GzP9qKLlG-10" edge="1">
          <mxGeometry width="50" height="50" relative="1" as="geometry">
            <mxPoint x="517.9999999999966" y="-1535" as="sourcePoint" />
            <mxPoint x="678" y="-1535" as="targetPoint" />
          </mxGeometry>
        </mxCell>
        <mxCell id="uOiCjjrxeWrXdkk0zyQc-6" value="" style="endArrow=none;html=1;rounded=0;exitX=1;exitY=0.25;exitDx=0;exitDy=0;" parent="1" source="YzYhgDHI8R-GzP9qKLlG-8" edge="1">
          <mxGeometry width="50" height="50" relative="1" as="geometry">
            <mxPoint x="517.9999999999966" y="-1660" as="sourcePoint" />
            <mxPoint x="678" y="-1660" as="targetPoint" />
          </mxGeometry>
        </mxCell>
        <mxCell id="uOiCjjrxeWrXdkk0zyQc-7" value="" style="endArrow=none;html=1;rounded=0;exitX=1;exitY=0.25;exitDx=0;exitDy=0;" parent="1" source="YzYhgDHI8R-GzP9qKLlG-6" edge="1">
          <mxGeometry width="50" height="50" relative="1" as="geometry">
            <mxPoint x="517.9999999999966" y="-1780" as="sourcePoint" />
            <mxPoint x="678" y="-1780" as="targetPoint" />
          </mxGeometry>
        </mxCell>
        <mxCell id="uOiCjjrxeWrXdkk0zyQc-8" value="" style="endArrow=none;html=1;rounded=0;exitX=1;exitY=0.25;exitDx=0;exitDy=0;" parent="1" source="YzYhgDHI8R-GzP9qKLlG-4" edge="1">
          <mxGeometry width="50" height="50" relative="1" as="geometry">
            <mxPoint x="517.9999999999966" y="-1900" as="sourcePoint" />
            <mxPoint x="678" y="-1900" as="targetPoint" />
            <Array as="points" />
          </mxGeometry>
        </mxCell>
        <mxCell id="uOiCjjrxeWrXdkk0zyQc-9" value="" style="endArrow=none;html=1;rounded=0;exitX=1.017;exitY=0.346;exitDx=0;exitDy=0;exitPerimeter=0;" parent="1" source="YzYhgDHI8R-GzP9qKLlG-2" edge="1">
          <mxGeometry width="50" height="50" relative="1" as="geometry">
            <mxPoint x="625" y="-2043" as="sourcePoint" />
            <mxPoint x="678" y="-2020" as="targetPoint" />
          </mxGeometry>
        </mxCell>
        <mxCell id="YzYhgDHI8R-GzP9qKLlG-2" value="A1" style="verticalLabelPosition=bottom;verticalAlign=top;html=1;shape=offPageConnector;rounded=0;size=0.5485632183908024;" parent="1" vertex="1">
          <mxGeometry x="557" y="-2040" width="60" height="60" as="geometry" />
        </mxCell>
        <mxCell id="YzYhgDHI8R-GzP9qKLlG-4" value="B1" style="verticalLabelPosition=bottom;verticalAlign=top;html=1;shape=offPageConnector;rounded=0;size=0.5;" parent="1" vertex="1">
          <mxGeometry x="557" y="-1915" width="60" height="60" as="geometry" />
        </mxCell>
        <mxCell id="YzYhgDHI8R-GzP9qKLlG-6" value="C1" style="verticalLabelPosition=bottom;verticalAlign=top;html=1;shape=offPageConnector;rounded=0;size=0.5;" parent="1" vertex="1">
          <mxGeometry x="552" y="-1795" width="60" height="60" as="geometry" />
        </mxCell>
        <mxCell id="YzYhgDHI8R-GzP9qKLlG-8" value="D1" style="verticalLabelPosition=bottom;verticalAlign=top;html=1;shape=offPageConnector;rounded=0;size=0.5;" parent="1" vertex="1">
          <mxGeometry x="549" y="-1675" width="63" height="60" as="geometry" />
        </mxCell>
        <mxCell id="YzYhgDHI8R-GzP9qKLlG-10" value="E1" style="verticalLabelPosition=bottom;verticalAlign=top;html=1;shape=offPageConnector;rounded=0;size=0.5;" parent="1" vertex="1">
          <mxGeometry x="549" y="-1550" width="60" height="60" as="geometry" />
        </mxCell>
        <mxCell id="iPTA39rfsTSDC_bvKPxS-2" value="Yes" style="text;html=1;align=center;verticalAlign=middle;resizable=0;points=[];autosize=1;strokeColor=none;fillColor=none;" parent="1" vertex="1">
          <mxGeometry x="258" y="-1375" width="40" height="30" as="geometry" />
        </mxCell>
        <mxCell id="iPTA39rfsTSDC_bvKPxS-3" value="" style="edgeStyle=orthogonalEdgeStyle;rounded=0;orthogonalLoop=1;jettySize=auto;html=1;" parent="1" target="iPTA39rfsTSDC_bvKPxS-4" edge="1">
          <mxGeometry relative="1" as="geometry">
            <mxPoint x="430" y="-1425" as="targetPoint" />
            <mxPoint x="303" y="-1425.67" as="sourcePoint" />
          </mxGeometry>
        </mxCell>
        <mxCell id="iPTA39rfsTSDC_bvKPxS-4" value="Print &quot;there is no such optiion&#39;" style="shape=parallelogram;perimeter=parallelogramPerimeter;whiteSpace=wrap;html=1;fixedSize=1;" parent="1" vertex="1">
          <mxGeometry x="400" y="-1455" width="200" height="60" as="geometry" />
        </mxCell>
        <mxCell id="iPTA39rfsTSDC_bvKPxS-6" value="" style="endArrow=none;html=1;rounded=0;exitX=1;exitY=0.5;exitDx=0;exitDy=0;" parent="1" source="iPTA39rfsTSDC_bvKPxS-4" edge="1">
          <mxGeometry width="50" height="50" relative="1" as="geometry">
            <mxPoint x="430" y="-1375" as="sourcePoint" />
            <mxPoint x="680" y="-1425" as="targetPoint" />
          </mxGeometry>
        </mxCell>
        <mxCell id="iPTA39rfsTSDC_bvKPxS-7" value="No" style="text;html=1;align=center;verticalAlign=middle;resizable=0;points=[];autosize=1;strokeColor=none;fillColor=none;" parent="1" vertex="1">
          <mxGeometry x="308" y="-1455" width="40" height="30" as="geometry" />
        </mxCell>
        <mxCell id="x9kzj9fMZQaz0tGiDgYw-9" value="" style="edgeStyle=orthogonalEdgeStyle;rounded=0;orthogonalLoop=1;jettySize=auto;html=1;entryX=0;entryY=0.329;entryDx=0;entryDy=0;entryPerimeter=0;" parent="1" source="x9kzj9fMZQaz0tGiDgYw-1" target="YzYhgDHI8R-GzP9qKLlG-2" edge="1">
          <mxGeometry relative="1" as="geometry" />
        </mxCell>
        <mxCell id="x9kzj9fMZQaz0tGiDgYw-1" value="administartor.main()" style="shape=process;whiteSpace=wrap;html=1;backgroundOutline=1;" parent="1" vertex="1">
          <mxGeometry x="350" y="-2038.5" width="135" height="37" as="geometry" />
        </mxCell>
        <mxCell id="x9kzj9fMZQaz0tGiDgYw-11" value="" style="edgeStyle=orthogonalEdgeStyle;rounded=0;orthogonalLoop=1;jettySize=auto;html=1;entryX=0;entryY=0.25;entryDx=0;entryDy=0;" parent="1" source="x9kzj9fMZQaz0tGiDgYw-10" target="YzYhgDHI8R-GzP9qKLlG-4" edge="1">
          <mxGeometry relative="1" as="geometry" />
        </mxCell>
        <mxCell id="x9kzj9fMZQaz0tGiDgYw-10" value="Lecturer.main()" style="shape=process;whiteSpace=wrap;html=1;backgroundOutline=1;" parent="1" vertex="1">
          <mxGeometry x="356" y="-1918.5" width="135" height="37" as="geometry" />
        </mxCell>
        <mxCell id="x9kzj9fMZQaz0tGiDgYw-13" value="" style="edgeStyle=orthogonalEdgeStyle;rounded=0;orthogonalLoop=1;jettySize=auto;html=1;entryX=0;entryY=0.25;entryDx=0;entryDy=0;" parent="1" source="x9kzj9fMZQaz0tGiDgYw-12" target="YzYhgDHI8R-GzP9qKLlG-6" edge="1">
          <mxGeometry relative="1" as="geometry" />
        </mxCell>
        <mxCell id="x9kzj9fMZQaz0tGiDgYw-12" value="student.main()" style="shape=process;whiteSpace=wrap;html=1;backgroundOutline=1;" parent="1" vertex="1">
          <mxGeometry x="359" y="-1798.5" width="135" height="37" as="geometry" />
        </mxCell>
        <mxCell id="x9kzj9fMZQaz0tGiDgYw-15" value="" style="edgeStyle=orthogonalEdgeStyle;rounded=0;orthogonalLoop=1;jettySize=auto;html=1;entryX=0;entryY=0.25;entryDx=0;entryDy=0;" parent="1" source="x9kzj9fMZQaz0tGiDgYw-14" target="YzYhgDHI8R-GzP9qKLlG-8" edge="1">
          <mxGeometry relative="1" as="geometry" />
        </mxCell>
        <mxCell id="x9kzj9fMZQaz0tGiDgYw-14" value="registrar.main()" style="shape=process;whiteSpace=wrap;html=1;backgroundOutline=1;" parent="1" vertex="1">
          <mxGeometry x="356" y="-1678.5" width="135" height="37" as="geometry" />
        </mxCell>
        <mxCell id="x9kzj9fMZQaz0tGiDgYw-17" value="" style="edgeStyle=orthogonalEdgeStyle;rounded=0;orthogonalLoop=1;jettySize=auto;html=1;entryX=0;entryY=0.25;entryDx=0;entryDy=0;" parent="1" source="x9kzj9fMZQaz0tGiDgYw-16" target="YzYhgDHI8R-GzP9qKLlG-10" edge="1">
          <mxGeometry relative="1" as="geometry" />
        </mxCell>
        <mxCell id="x9kzj9fMZQaz0tGiDgYw-16" value="accountant.main()" style="shape=process;whiteSpace=wrap;html=1;backgroundOutline=1;" parent="1" vertex="1">
          <mxGeometry x="365" y="-1553.5" width="135" height="37" as="geometry" />
        </mxCell>
      </root>
    </mxGraphModel>
  </diagram>
</mxfile>
